<svg id="Ebene_1" data-name="Ebene 1" xmlns="http://www.w3.org/2000/svg" viewBox="0 0 818.58 422.12"><defs><style>.cls-1,.cls-2,.cls-3,.cls-4{stroke:#000;stroke-miterlimit:10;}.cls-2{fill:#fff;}.cls-3{fill:none;stroke-width:7px;}.cls-4{fill:red;stroke-width:10px;}</style></defs><title>logo</title><path class="cls-1" d="M231.39,554.1A808.73,808.73,0,0,1,317.16,476c20.6-16.21,56.77-44.4,109.59-72.46,40.84-21.69,82.21-43.24,140.91-53.34a378.14,378.14,0,0,1,73.4-5.36,397.05,397.05,0,0,1,79.2,7.34c47.7,9.32,80.76,25,114.65,41.27a692.72,692.72,0,0,1,213.7,160.62,791,791,0,0,1-66.95,64.1c-25.48,21.68-67.14,56.71-129.26,89.1-31.47,16.4-72.21,37.28-130.31,49.39A439.11,439.11,0,0,1,640,765.87a394,394,0,0,1-91.26-10.09c-48.35-11.2-81.23-28.55-119.24-48.61a731.94,731.94,0,0,1-123.82-82.55A735.42,735.42,0,0,1,231.39,554.1Z" transform="translate(-230.71 -344.26)"/><ellipse class="cls-2" cx="413.72" cy="215.19" rx="199.03" ry="184.36"/><path class="cls-3" d="M593.72,378.12c-4.75,10.94-9.18,25.95-12.94,39-16.21,56.27-8.57,108.16-2.2,143.45" transform="translate(-230.71 -344.26)"/><path class="cls-3" d="M796,432.24c-21.18-.44-65.55-.07-105.25,15.59-37.67,14.85-59.86,37.24-75,51.33" transform="translate(-230.71 -344.26)"/><path class="cls-3" d="M839.06,615.22c-10.51-17-30.9-42.83-56.13-64-39.29-33-79.74-42.15-103.1-47.9" transform="translate(-230.71 -344.26)"/><path class="cls-3" d="M685.89,743.8c9.6-16.28,23.65-44.65,30.27-75.16,10.29-47.39-.49-86-6-108.08" transform="translate(-230.71 -344.26)"/><path class="cls-3" d="M496.49,687.06c20.37-.09,49.13-4.3,78.73-12.64,49-13.81,67.42-37.14,87.92-53.89" transform="translate(-230.71 -344.26)"/><path class="cls-3" d="M449.25,503.32c9.7,18.23,42.09,73.31,105.94,92.63a158,158,0,0,0,42.65,6.66" transform="translate(-230.71 -344.26)"/><circle class="cls-4" cx="413.72" cy="215.19" r="69.92"/></svg>